<mxfile host="app.diagrams.net" modified="2021-09-30T11:22:07.761Z" agent="5.0 (Windows NT 10.0; Win64; x64) AppleWebKit/537.36 (KHTML, like Gecko) Chrome/94.0.4606.61 Safari/537.36" etag="ja-pZu9fBbYq6OuV_Q_k" version="15.3.8" type="github">
  <diagram id="6Aw5Qk3iywTWcC-d3EEi" name="Page-1">
    <mxGraphModel dx="1348" dy="802" grid="1" gridSize="10" guides="1" tooltips="1" connect="1" arrows="1" fold="1" page="1" pageScale="1" pageWidth="827" pageHeight="1169" math="0" shadow="0">
      <root>
        <mxCell id="0" />
        <mxCell id="1" parent="0" />
        <mxCell id="9mlbt4g1-3WWDKIeuFsg-1" value="" style="rounded=0;whiteSpace=wrap;html=1;" vertex="1" parent="1">
          <mxGeometry x="20" y="40" width="770" height="150" as="geometry" />
        </mxCell>
        <mxCell id="9mlbt4g1-3WWDKIeuFsg-2" value="LOGO" style="ellipse;shape=cloud;whiteSpace=wrap;html=1;" vertex="1" parent="1">
          <mxGeometry x="30" y="70" width="120" height="80" as="geometry" />
        </mxCell>
        <mxCell id="9mlbt4g1-3WWDKIeuFsg-3" value="Valikko" style="rounded=0;whiteSpace=wrap;html=1;" vertex="1" parent="1">
          <mxGeometry x="510" y="150" width="250" height="30" as="geometry" />
        </mxCell>
        <mxCell id="9mlbt4g1-3WWDKIeuFsg-4" value="" style="rounded=1;whiteSpace=wrap;html=1;" vertex="1" parent="1">
          <mxGeometry x="20" y="200" width="120" height="120" as="geometry" />
        </mxCell>
        <mxCell id="9mlbt4g1-3WWDKIeuFsg-5" value="" style="rounded=1;whiteSpace=wrap;html=1;" vertex="1" parent="1">
          <mxGeometry x="150" y="200" width="120" height="120" as="geometry" />
        </mxCell>
        <mxCell id="9mlbt4g1-3WWDKIeuFsg-6" value="" style="rounded=1;whiteSpace=wrap;html=1;" vertex="1" parent="1">
          <mxGeometry x="410" y="200" width="120" height="120" as="geometry" />
        </mxCell>
        <mxCell id="9mlbt4g1-3WWDKIeuFsg-7" value="" style="rounded=1;whiteSpace=wrap;html=1;" vertex="1" parent="1">
          <mxGeometry x="280" y="200" width="120" height="120" as="geometry" />
        </mxCell>
        <mxCell id="9mlbt4g1-3WWDKIeuFsg-8" value="Kuvagalleria" style="rounded=0;whiteSpace=wrap;html=1;" vertex="1" parent="1">
          <mxGeometry x="20" y="330" width="770" height="140" as="geometry" />
        </mxCell>
        <mxCell id="9mlbt4g1-3WWDKIeuFsg-9" value="" style="rounded=1;whiteSpace=wrap;html=1;" vertex="1" parent="1">
          <mxGeometry x="540" y="200" width="120" height="120" as="geometry" />
        </mxCell>
        <mxCell id="9mlbt4g1-3WWDKIeuFsg-10" value="" style="rounded=1;whiteSpace=wrap;html=1;" vertex="1" parent="1">
          <mxGeometry x="670" y="200" width="120" height="120" as="geometry" />
        </mxCell>
        <mxCell id="9mlbt4g1-3WWDKIeuFsg-11" value="Tekstilohko" style="whiteSpace=wrap;html=1;aspect=fixed;" vertex="1" parent="1">
          <mxGeometry x="20" y="490" width="490" height="490" as="geometry" />
        </mxCell>
        <mxCell id="9mlbt4g1-3WWDKIeuFsg-12" value="Jotain Lohkoja" style="rounded=0;whiteSpace=wrap;html=1;" vertex="1" parent="1">
          <mxGeometry x="520" y="490" width="270" height="490" as="geometry" />
        </mxCell>
      </root>
    </mxGraphModel>
  </diagram>
</mxfile>
